<?xml version="1.0" encoding="utf-8"?>
<!-- Generator: Adobe Illustrator 28.3.0, SVG Export Plug-In . SVG Version: 6.00 Build 0)  -->
<svg version="1.1" id="Layer_1" xmlns="http://www.w3.org/2000/svg" xmlns:xlink="http://www.w3.org/1999/xlink" x="0px" y="0px"
	 width="917px" height="195px" viewBox="0 0 917 195" style="enable-background:new 0 0 917 195;" xml:space="preserve">
<style type="text/css">
	.st0{fill:#333333;}
	.st1{fill:#E2C479;}
	.st2{fill:url(#Path_4_00000157307980204100797920000015394771138590413238_);}
	.st3{fill:#808080;}
	.st4{fill:#6F4E2C;}
</style>
<g id="Group_50" transform="translate(0 0)">
	<path id="Path_103" class="st0" d="M882.1,145.2c-21.7,13-42,10.9-55.7-5.1c-15.6-19.4-15.6-47-0.1-66.4
		c14-16.3,34.1-18.5,52.4-7.2c3.5-1.8,7.1-3.2,11-4c8.8-0.5,17.6-0.2,26.5-0.2c0.4,1.1,0.6,2.2,0.8,3.4c0,29.7,0.4,59.4-0.1,89.1
		c0.6,16.3-9.6,31.2-25.1,36.4c-18.7,7.6-39.9,6.1-57.3-4.1c-5.5-3.9-10.6-8.4-15.2-13.2l28.4-16.6c8.2,8.3,17.7,11.6,28.6,6.3
		C883.8,159.7,882.3,152.6,882.1,145.2 M865.9,90.2c-8.6-0.6-16,6-16.5,14.6c0,0.7,0,1.3,0,2c0,9.1,7.3,16.5,16.4,16.5
		c9.1,0,16.5-7.3,16.5-16.4c0.7-8.5-5.5-15.9-14-16.6C867.5,90.1,866.7,90.1,865.9,90.2"/>
	<path id="Path_104" class="st0" d="M387.6,66.8c3.2-2,6.6-3.6,10.2-4.6c8.7-0.5,17.5-0.2,26.9-0.2c0.2,3.1,0.4,5.5,0.4,7.9
		c0,26.8,0,53.5,0,80.3c0,24.5-10.9,38.6-34.9,43.7c-15.9,4-32.8,1.6-46.9-6.8c-5.6-4.1-11-8.6-15.9-13.5l28.5-16.7
		c8.3,8.6,18.1,12,29.1,6c7-3.8,6.4-10.7,5.5-18.8c-10.7,10.1-22.9,11.2-35.5,8.6c-9.7-2.3-18.1-8.3-23.4-16.7
		c-13.3-19.2-10.8-49,5.5-65.2C350.5,57,372.1,55.3,387.6,66.8 M373.8,90.1c-9.2,0-16.6,7.5-16.6,16.6c0,9.2,7.5,16.6,16.6,16.6
		c0.2,0,0.5,0,0.7,0c9.2-0.2,16.4-7.8,16.2-17C390.6,97.2,383,89.9,373.8,90.1"/>
	<path id="Path_105" class="st0" d="M276.7,68.7V25h33.9v130.1c-10.3,0-21,0.2-31.6-0.2c-1.3,0-2.4-3.4-3.4-4.9
		c-5.2,2.8-10.7,5.1-16.4,6.9c-14.2,3.4-29.1-1.8-38.3-13.2c-16.7-19.1-16-53.1,1.4-71.7c13-14.4,34.8-16.8,50.6-5.4
		C273.6,67.1,274.5,67.5,276.7,68.7 M243.6,108c-0.2,10.6,6.2,17.8,16.1,18c8.9,0.4,16.4-6.5,16.8-15.4c0-0.4,0-0.8,0-1.1
		c1-9.2-5.6-17.5-14.8-18.5c-0.6-0.1-1.1-0.1-1.7-0.1c-9,0-16.4,7.3-16.4,16.4C243.6,107.5,243.6,107.8,243.6,108"/>
	<path id="Path_106" class="st0" d="M94.4,154.8H60c0-13.9,0-27.6,0-41.2c0-2.9,0.1-5.9,0-8.8c-0.3-8.1-4.3-12.3-11.4-12.4
		c-6.7-0.3-12.4,4.9-12.7,11.6c0,0.3,0,0.6,0,0.9c-0.4,12.5-0.1,25.1-0.2,37.6c0,3.9,0,7.8,0,12.2H1.9V24.9h33.6v42.2
		c8.4-2.6,16.3-6.7,24.5-7.3c16.6-1.2,28,8.1,32.1,24.2c1.3,4.7,2.1,9.6,2.3,14.5C94.6,117.1,94.4,135.7,94.4,154.8"/>
	<path id="Path_107" class="st0" d="M603.4,154.7c0-14,0-27.7,0-41.3c0-3.4,0-6.9-0.2-10.3c0.1-5.8-4.4-10.6-10.2-10.7
		c-0.2,0-0.4,0-0.6,0c-6.2-0.8-11.9,3.6-12.8,9.8c0,0.2,0,0.4-0.1,0.6c-0.8,8.5-0.6,17.2-0.7,25.7c-0.1,8.6,0,17.1,0,26.2h-33.8
		V24.8h33.6v42.5c8.2-2.8,15.5-6.8,23-7.4c18.1-1.7,31.9,8.2,33.9,26.2c2.5,22.5,2.1,45.4,3,68.7L603.4,154.7z"/>
	<path id="Path_108" class="st0" d="M139.7,120.4c7,10.9,18.5,11.9,34.7,4l21.6,18.1c-1.3,1.5-2.6,3-4.1,4.3
		c-23.4,19-64.6,13.1-80.4-11.5c-14.6-23.7-7.3-54.7,16.4-69.3c0.3-0.2,0.6-0.3,0.8-0.5c25.2-14,57.4-4.3,69,21.2
		c2.4,5.4,3.9,11.1,4.6,16.9c1.7,14.9-0.2,16.8-15,16.8H139.7 M168.8,97.8c-2.8-8.4-7.2-11.4-15.7-10.7c-6.6-0.1-12.4,4.3-14.1,10.7
		H168.8z"/>
	<path id="Path_109" class="st0" d="M506,124.3l21.8,18.5c-12.3,12.7-27.3,15.9-43.4,14.9c-21-1.3-37.6-10.2-45.3-30.7
		c-7.9-18.7-3.3-40.4,11.6-54.2c15.6-14.4,38.5-17.7,57.5-8.3c18.1,9.7,28.2,29.6,25.5,49.9c-0.6,4.7-2.7,6.1-7.2,6.1
		c-15.5-0.2-30.9-0.1-46.4,0c-2.6,0-5.2,0.2-8.2,0.4C477.8,131.3,490.2,132.4,506,124.3 M500.7,97.6c-1.1-6.6-7.1-11.2-13.8-10.6
		c-7.2-1.1-14,3.6-15.6,10.6H500.7z"/>
	<g id="Group_45" transform="translate(156.823 0)">
		<path id="Subtraction_15" class="st1" d="M596.6,151.4c-0.7,0-1.4-0.1-2.1-0.2c-4.9-2-9.4-4.9-13.3-8.7c-3.4-3.1-6.3-6.7-8.5-10.8
			c-2.6-4.7-4.2-10-4.6-15.4c-0.6-6.8,0.2-13.7,2.2-20.3c1.3-4.3,3.5-8.2,6.5-11.6c1.2-1.6,3-2.7,4.9-3.2h0.1c2.6,0.1,3.7,2,5.2,4.6
			c2.3,4.5,5.9,8.2,10.2,10.7c6.3,3.8,20.7,4.7,20.8,4.7c0.4,4.1,1.6,8,3.6,11.6c2.5,3.2,5.4,5.9,8.7,8.2v0
			c-0.7,1.9-1.6,3.7-2.7,5.4c-3.6,5.4-7.8,10.2-12.7,14.4C607.1,148,601.2,151.4,596.6,151.4z M583,99.1c-2.4,0.1-4.2,2.1-4.1,4.4
			c0,0,0,0.1,0,0.1c-0.1,2.2,1.6,4.2,3.8,4.3c0.2,0,0.4,0,0.6,0c1.2,0.1,2.3-0.4,3.2-1.2c0.8-0.9,1.2-2.1,1.1-3.3
			c0.1-2.3-1.7-4.3-4-4.4C583.4,99.1,583.2,99.1,583,99.1L583,99.1z"/>
		
			<linearGradient id="Path_4_00000152222940892970037850000006218357827579134081_" gradientUnits="userSpaceOnUse" x1="491.8725" y1="123.716" x2="629.264" y2="49.0388">
			<stop  offset="0.1054" style="stop-color:#8D6E4F"/>
			<stop  offset="0.9996" style="stop-color:#704924"/>
		</linearGradient>
		<path id="Path_4" style="fill:url(#Path_4_00000152222940892970037850000006218357827579134081_);" d="M643,29.7
			c-11-2.2-20.2-2.6-30,2.6c20,7.4,34.3,25.1,37.3,46.2c-14.1-14.4-29.8-20.2-48-16.1c-12.7,2.8-23.7,10.4-30.9,21.2
			c-15,22.7-8.7,53.3,14,68.3c1,0.7,2,1.3,3.1,1.9c-43.7,15.9-97.3-19.9-94.4-73c4.4,2.6,7.1,7.4,12.9,8.6
			c-8.5-25-3.6-46.2,16.6-63.3c-1.6,9.1-0.3,18.4,3.7,26.7c3.6-25.5,15.7-42.7,40-52c-3,9.2-5.8,17.5-2.7,27.2
			c14-13.3,33.9-18.4,52.6-13.7C627.1,16.7,636.2,22.1,643,29.7"/>
		<path id="Path_5" class="st3" d="M634.2,94.7c4,0.1,5.8,1.6,5.4,5.1c-0.8,5.2-2.3,10.2-4.6,14.9c-0.9,2-2.3,1.8-3.7,0.6
			c-1.7-1.3-3.2-2.8-4.6-4.4c-2.4-3.5-5.6-7.8-3.3-11.7C625.5,95.6,630.8,96,634.2,94.7"/>
		<path id="Path_281" class="st4" d="M583,99.2c2.3-0.2,4.3,1.5,4.5,3.8c0,0.2,0,0.4,0,0.6c0.3,2.2-1.3,4.1-3.4,4.4
			c-0.3,0-0.5,0-0.8,0c-2.2,0.2-4.2-1.4-4.5-3.7c0-0.2,0-0.4,0-0.6C578.7,101.3,580.5,99.3,583,99.2C582.9,99.2,582.9,99.2,583,99.2
			"/>
	</g>
</g>
</svg>
